<svg xmlns="http://www.w3.org/2000/svg" xmlns:xlink="http://www.w3.org/1999/xlink" width="1183" zoomAndPan="magnify" viewBox="0 0 887.25 340.49999" height="454" preserveAspectRatio="xMidYMid meet" version="1.0"><defs><g/><clipPath id="9ddd60a4a2"><path d="M 585 133 L 651 133 L 651 196 L 585 196 Z M 585 133 " clip-rule="nonzero"/></clipPath><clipPath id="b16a790d6a"><path d="M 650.546875 134.019531 L 648.660156 197.648438 L 585.03125 195.761719 L 586.917969 132.132812 Z M 650.546875 134.019531 " clip-rule="nonzero"/></clipPath><clipPath id="356b2f04fd"><path d="M 650.546875 134.019531 L 648.660156 197.648438 L 585.03125 195.761719 L 586.917969 132.132812 Z M 650.546875 134.019531 " clip-rule="nonzero"/></clipPath></defs><g clip-path="url(#9ddd60a4a2)"><g clip-path="url(#b16a790d6a)"><g clip-path="url(#356b2f04fd)"><path fill="#ff7300" d="M 585.171875 192.550781 C 585.222656 190.804688 586.683594 189.429688 588.429688 189.480469 C 618.253906 190.363281 643.238281 166.820312 644.121094 136.996094 C 644.171875 135.25 645.632812 133.875 647.378906 133.925781 C 649.128906 133.976562 650.503906 135.4375 650.453125 137.183594 C 650.210938 145.339844 648.378906 153.203125 645.007812 160.5625 C 641.75 167.667969 637.203125 173.996094 631.492188 179.378906 C 625.78125 184.757812 619.191406 188.921875 611.910156 191.753906 C 604.363281 194.683594 596.402344 196.046875 588.25 195.804688 C 586.496094 195.757812 585.121094 194.296875 585.171875 192.550781 Z M 585.171875 192.550781 " fill-opacity="1" fill-rule="nonzero"/></g></g></g><g fill="#ff7300" fill-opacity="1"><g transform="translate(47.228724, 195.473867)"><g><path d="M 80.484375 -79.25 C 85.722656 -79.25 90.5 -78.394531 94.8125 -76.6875 C 99.132812 -74.988281 102.832031 -72.578125 105.90625 -69.453125 C 108.988281 -66.328125 111.351562 -62.535156 113 -58.078125 C 114.65625 -53.628906 115.484375 -48.691406 115.484375 -43.265625 C 115.484375 -29.765625 111.785156 -19.175781 104.390625 -11.5 C 96.992188 -3.832031 85.671875 0 70.421875 0 L 20.265625 0 C 12.359375 0 8.40625 -3.90625 8.40625 -11.71875 L 8.40625 -77.3125 C 10.15625 -77.582031 12.015625 -77.832031 13.984375 -78.0625 C 15.960938 -78.300781 17.914062 -78.421875 19.84375 -78.421875 C 27.65625 -78.421875 31.5625 -74.609375 31.5625 -66.984375 L 31.5625 -18.1875 L 47.828125 -18.1875 C 47.640625 -21.675781 47.453125 -25.164062 47.265625 -28.65625 C 47.085938 -32.15625 47 -35.554688 47 -38.859375 C 47 -46.023438 47.78125 -52.179688 49.34375 -57.328125 C 50.90625 -62.472656 53.128906 -66.648438 56.015625 -69.859375 C 58.910156 -73.078125 62.425781 -75.445312 66.5625 -76.96875 C 70.695312 -78.488281 75.335938 -79.25 80.484375 -79.25 Z M 71.109375 -18.1875 C 77.453125 -18.1875 82.457031 -20.320312 86.125 -24.59375 C 89.800781 -28.875 91.640625 -35.054688 91.640625 -43.140625 C 91.640625 -49.109375 90.742188 -53.46875 88.953125 -56.21875 C 87.160156 -58.976562 84.429688 -60.359375 80.765625 -60.359375 C 78.648438 -60.359375 76.898438 -59.785156 75.515625 -58.640625 C 74.140625 -57.492188 73.0625 -55.910156 72.28125 -53.890625 C 71.5 -51.867188 70.96875 -49.523438 70.6875 -46.859375 C 70.414062 -44.191406 70.28125 -41.296875 70.28125 -38.171875 C 70.28125 -34.316406 70.367188 -30.6875 70.546875 -27.28125 C 70.734375 -23.882812 70.921875 -20.851562 71.109375 -18.1875 Z M 71.109375 -18.1875 "/></g></g></g><g fill="#ff7300" fill-opacity="1"><g transform="translate(159.542425, 195.473867)"><g><path d="M 35.421875 -31.96875 C 33.117188 -31.96875 31.28125 -31.234375 29.90625 -29.765625 C 28.53125 -28.296875 27.84375 -26.367188 27.84375 -23.984375 C 27.84375 -21.679688 28.53125 -19.796875 29.90625 -18.328125 C 31.28125 -16.859375 33.117188 -16.125 35.421875 -16.125 C 37.804688 -16.125 39.6875 -16.859375 41.0625 -18.328125 C 42.445312 -19.796875 43.140625 -21.679688 43.140625 -23.984375 C 43.140625 -26.367188 42.445312 -28.296875 41.0625 -29.765625 C 39.6875 -31.234375 37.804688 -31.96875 35.421875 -31.96875 Z M 161.9375 -78.6875 C 161.9375 -85.300781 160.671875 -90.285156 158.140625 -93.640625 C 155.609375 -96.992188 152.003906 -98.671875 147.328125 -98.671875 C 143.648438 -98.671875 140.773438 -97.613281 138.703125 -95.5 C 136.640625 -93.382812 135.609375 -90.492188 135.609375 -86.828125 C 135.609375 -83.515625 136.296875 -80.476562 137.671875 -77.71875 L 152.28125 -77.71875 C 153.65625 -74.507812 154.34375 -71.523438 154.34375 -68.765625 C 154.34375 -65.640625 153.5625 -63.316406 152 -61.796875 C 150.445312 -60.285156 147.691406 -59.53125 143.734375 -59.53125 L 138.5 -59.53125 L 138.5 -0.546875 C 136.757812 -0.0859375 134.921875 0.226562 132.984375 0.40625 C 131.054688 0.59375 129.265625 0.6875 127.609375 0.6875 C 119.429688 0.6875 115.34375 -3.257812 115.34375 -11.15625 L 115.34375 -59.671875 L 98.265625 -59.671875 L 98.265625 -0.546875 C 96.515625 -0.0859375 94.695312 0.226562 92.8125 0.40625 C 90.925781 0.59375 89.160156 0.6875 87.515625 0.6875 C 79.429688 0.6875 75.390625 -3.21875 75.390625 -11.03125 L 75.390625 -44.515625 C 73.546875 -49.203125 70.507812 -53.0625 66.28125 -56.09375 C 62.0625 -59.125 56.597656 -60.640625 49.890625 -60.640625 C 43.273438 -60.640625 37.96875 -59.097656 33.96875 -56.015625 C 29.96875 -52.941406 27.507812 -48.785156 26.59375 -43.546875 C 28.25 -45.015625 30.175781 -46.160156 32.375 -46.984375 C 34.582031 -47.816406 37.019531 -48.234375 39.6875 -48.234375 C 43.363281 -48.234375 46.71875 -47.660156 49.75 -46.515625 C 52.78125 -45.367188 55.351562 -43.710938 57.46875 -41.546875 C 59.582031 -39.390625 61.234375 -36.816406 62.421875 -33.828125 C 63.617188 -30.847656 64.21875 -27.566406 64.21875 -23.984375 C 64.21875 -20.210938 63.550781 -16.765625 62.21875 -13.640625 C 60.882812 -10.515625 59 -7.828125 56.5625 -5.578125 C 54.132812 -3.328125 51.195312 -1.582031 47.75 -0.34375 C 44.300781 0.894531 40.507812 1.515625 36.375 1.515625 C 31.601562 1.515625 27.3125 0.644531 23.5 -1.09375 C 19.6875 -2.84375 16.421875 -5.347656 13.703125 -8.609375 C 10.992188 -11.867188 8.90625 -15.84375 7.4375 -20.53125 C 5.96875 -25.21875 5.234375 -30.457031 5.234375 -36.25 C 5.234375 -42.863281 6.3125 -48.8125 8.46875 -54.09375 C 10.632812 -59.375 13.691406 -63.875 17.640625 -67.59375 C 21.585938 -71.3125 26.269531 -74.179688 31.6875 -76.203125 C 37.113281 -78.234375 43.085938 -79.25 49.609375 -79.25 C 53.472656 -79.25 56.988281 -78.832031 60.15625 -78 C 63.320312 -77.175781 66.097656 -76.164062 68.484375 -74.96875 C 70.878906 -73.769531 72.925781 -72.503906 74.625 -71.171875 C 76.320312 -69.847656 77.628906 -68.679688 78.546875 -67.671875 C 79.191406 -70.515625 80.640625 -72.898438 82.890625 -74.828125 C 85.140625 -76.753906 88.195312 -77.71875 92.0625 -77.71875 L 114.796875 -77.71875 C 113.234375 -81.675781 112.453125 -85.953125 112.453125 -90.546875 C 112.453125 -94.585938 113.28125 -98.257812 114.9375 -101.5625 C 116.59375 -104.875 118.890625 -107.722656 121.828125 -110.109375 C 124.765625 -112.503906 128.320312 -114.34375 132.5 -115.625 C 136.6875 -116.90625 141.304688 -117.546875 146.359375 -117.546875 C 151.960938 -117.546875 157.148438 -116.648438 161.921875 -114.859375 C 166.703125 -113.066406 170.816406 -110.492188 174.265625 -107.140625 C 177.710938 -103.796875 180.398438 -99.753906 182.328125 -95.015625 C 184.253906 -90.285156 185.21875 -84.984375 185.21875 -79.109375 L 185.21875 -0.546875 C 183.476562 -0.0859375 181.640625 0.226562 179.703125 0.40625 C 177.773438 0.59375 175.984375 0.6875 174.328125 0.6875 C 170.109375 0.6875 166.988281 -0.273438 164.96875 -2.203125 C 162.945312 -4.128906 161.9375 -7.160156 161.9375 -11.296875 Z M 161.9375 -78.6875 "/></g></g></g><g fill="#ff7300" fill-opacity="1"><g transform="translate(345.44629, 195.473867)"><g><path d="M 59.125 -79.25 C 67.207031 -79.25 74.347656 -78.191406 80.546875 -76.078125 C 86.753906 -73.960938 92.109375 -71.476562 96.609375 -68.625 C 100.460938 -71.84375 104.914062 -74.414062 109.96875 -76.34375 C 115.019531 -78.28125 120.304688 -79.25 125.828125 -79.25 C 132.617188 -79.25 138.722656 -78.210938 144.140625 -76.140625 C 149.566406 -74.078125 154.140625 -71.140625 157.859375 -67.328125 C 161.585938 -63.515625 164.4375 -58.875 166.40625 -53.40625 C 168.382812 -47.9375 169.375 -41.800781 169.375 -35 C 169.375 -30.3125 168.9375 -25.738281 168.0625 -21.28125 C 167.1875 -16.832031 165.921875 -12.863281 164.265625 -9.375 C 162.617188 -5.882812 160.550781 -3.082031 158.0625 -0.96875 C 155.582031 1.144531 152.785156 2.203125 149.671875 2.203125 C 143.972656 2.203125 139.378906 -0.644531 135.890625 -6.34375 C 138.640625 -10.019531 140.929688 -14.109375 142.765625 -18.609375 C 144.609375 -23.109375 145.53125 -28.617188 145.53125 -35.140625 C 145.53125 -43.128906 143.578125 -49.421875 139.671875 -54.015625 C 135.765625 -58.609375 130.226562 -60.90625 123.0625 -60.90625 C 119.382812 -60.90625 116.445312 -60.359375 114.25 -59.265625 C 116.363281 -57.878906 118.335938 -56.148438 120.171875 -54.078125 C 122.003906 -52.015625 123.585938 -49.695312 124.921875 -47.125 C 126.253906 -44.550781 127.3125 -41.75 128.09375 -38.71875 C 128.875 -35.6875 129.265625 -32.519531 129.265625 -29.21875 C 129.265625 -19.75 126.691406 -12.257812 121.546875 -6.75 C 116.398438 -1.238281 109.097656 1.515625 99.640625 1.515625 C 90.171875 1.515625 82.816406 -1.238281 77.578125 -6.75 C 72.347656 -12.257812 69.734375 -19.75 69.734375 -29.21875 C 69.734375 -35.007812 70.765625 -40.289062 72.828125 -45.0625 C 74.898438 -49.84375 77.546875 -53.75 80.765625 -56.78125 C 77.910156 -57.976562 74.78125 -58.894531 71.375 -59.53125 C 67.976562 -60.175781 64.078125 -60.5 59.671875 -60.5 C 51.128906 -60.5 44.054688 -59.117188 38.453125 -56.359375 C 32.847656 -53.609375 28.988281 -49.613281 26.875 -44.375 C 28.53125 -45.570312 30.367188 -46.515625 32.390625 -47.203125 C 34.410156 -47.890625 36.613281 -48.234375 39 -48.234375 C 42.675781 -48.234375 46.003906 -47.660156 48.984375 -46.515625 C 51.972656 -45.367188 54.546875 -43.710938 56.703125 -41.546875 C 58.867188 -39.390625 60.546875 -36.816406 61.734375 -33.828125 C 62.929688 -30.847656 63.53125 -27.566406 63.53125 -23.984375 C 63.53125 -20.210938 62.863281 -16.785156 61.53125 -13.703125 C 60.195312 -10.628906 58.289062 -7.941406 55.8125 -5.640625 C 53.332031 -3.347656 50.390625 -1.582031 46.984375 -0.34375 C 43.585938 0.894531 39.820312 1.515625 35.6875 1.515625 C 31.007812 1.515625 26.765625 0.710938 22.953125 -0.890625 C 19.140625 -2.503906 15.898438 -4.828125 13.234375 -7.859375 C 10.566406 -10.890625 8.519531 -14.515625 7.09375 -18.734375 C 5.675781 -22.960938 4.96875 -27.695312 4.96875 -32.9375 C 4.96875 -40.101562 6.25 -46.535156 8.8125 -52.234375 C 11.382812 -57.929688 15.015625 -62.773438 19.703125 -66.765625 C 24.390625 -70.765625 30.0625 -73.84375 36.71875 -76 C 43.382812 -78.164062 50.851562 -79.25 59.125 -79.25 Z M 99.640625 -16.125 C 101.847656 -16.125 103.570312 -17.316406 104.8125 -19.703125 C 106.050781 -22.097656 106.671875 -25.40625 106.671875 -29.625 C 106.671875 -34.59375 106.050781 -38.867188 104.8125 -42.453125 C 103.570312 -46.035156 101.800781 -48.742188 99.5 -50.578125 C 97.207031 -48.742188 95.4375 -46.035156 94.1875 -42.453125 C 92.945312 -38.867188 92.328125 -34.59375 92.328125 -29.625 C 92.328125 -25.40625 92.945312 -22.097656 94.1875 -19.703125 C 95.4375 -17.316406 97.253906 -16.125 99.640625 -16.125 Z M 34.734375 -31.96875 C 32.335938 -31.96875 30.453125 -31.234375 29.078125 -29.765625 C 27.703125 -28.296875 27.015625 -26.367188 27.015625 -23.984375 C 27.015625 -21.679688 27.703125 -19.796875 29.078125 -18.328125 C 30.453125 -16.859375 32.335938 -16.125 34.734375 -16.125 C 37.117188 -16.125 39 -16.859375 40.375 -18.328125 C 41.757812 -19.796875 42.453125 -21.679688 42.453125 -23.984375 C 42.453125 -26.367188 41.757812 -28.296875 40.375 -29.765625 C 39 -31.234375 37.117188 -31.96875 34.734375 -31.96875 Z M 34.734375 -31.96875 "/></g></g></g><g fill="#ff7300" fill-opacity="1"><g transform="translate(519.499363, 195.473867)"><g><path d="M 70.96875 -47.40625 C 81.539062 -46.851562 89.46875 -44.347656 94.75 -39.890625 C 100.03125 -35.441406 102.671875 -29.492188 102.671875 -22.046875 C 102.671875 -14.515625 100.300781 -8.703125 95.5625 -4.609375 C 90.832031 -0.523438 84.242188 1.515625 75.796875 1.515625 C 72.671875 1.515625 69.382812 1.007812 65.9375 0 C 62.5 -1.007812 59.398438 -2.476562 56.640625 -4.40625 C 54.160156 -2.570312 51.175781 -1.125 47.6875 -0.0625 C 44.195312 0.988281 39.96875 1.515625 35 1.515625 C 30.132812 1.515625 25.703125 0.941406 21.703125 -0.203125 C 17.703125 -1.347656 14.300781 -3 11.5 -5.15625 C 8.695312 -7.320312 6.535156 -9.894531 5.015625 -12.875 C 3.503906 -15.863281 2.75 -19.242188 2.75 -23.015625 C 2.75 -27.703125 3.894531 -31.765625 6.1875 -35.203125 C 8.488281 -38.648438 11.707031 -41.335938 15.84375 -43.265625 L 15.84375 -64.21875 C 15.84375 -68.625 16.945312 -71.972656 19.15625 -74.265625 C 21.363281 -76.566406 24.535156 -77.71875 28.671875 -77.71875 L 91.78125 -77.71875 C 92.519531 -76.4375 93.023438 -75.0625 93.296875 -73.59375 C 93.578125 -72.125 93.71875 -70.742188 93.71875 -69.453125 C 93.71875 -66.515625 92.976562 -64.265625 91.5 -62.703125 C 90.03125 -61.140625 87.367188 -60.359375 83.515625 -60.359375 L 70.96875 -60.359375 Z M 36.796875 -60.359375 L 36.796875 -48.09375 L 50.4375 -48.09375 L 50.4375 -60.359375 Z M 35.5625 -15.703125 C 40.238281 -15.703125 43.882812 -16.894531 46.5 -19.28125 C 49.125 -21.675781 50.4375 -25.125 50.4375 -29.625 L 50.4375 -31.5625 L 38.171875 -31.5625 C 33.304688 -31.5625 29.816406 -30.828125 27.703125 -29.359375 C 25.585938 -27.890625 24.53125 -25.820312 24.53125 -23.15625 C 24.53125 -20.757812 25.515625 -18.914062 27.484375 -17.625 C 29.460938 -16.34375 32.15625 -15.703125 35.5625 -15.703125 Z M 73.875 -14.890625 C 76.164062 -14.890625 78.046875 -15.550781 79.515625 -16.875 C 80.984375 -18.207031 81.71875 -20.207031 81.71875 -22.875 C 81.71875 -25.445312 80.773438 -27.488281 78.890625 -29 C 77.015625 -30.519531 74.144531 -31.28125 70.28125 -31.28125 C 70.28125 -28.800781 70.117188 -26.296875 69.796875 -23.765625 C 69.472656 -21.242188 68.851562 -18.695312 67.9375 -16.125 C 68.769531 -15.757812 69.664062 -15.460938 70.625 -15.234375 C 71.59375 -15.003906 72.675781 -14.890625 73.875 -14.890625 Z M 73.875 -14.890625 "/></g></g></g><g fill="#ff7300" fill-opacity="1"><g transform="translate(637.976768, 208.861034)"><g><path d="M 50.5625 -47.390625 L 58.140625 -47.390625 C 57.398438 -45.492188 56.265625 -42.859375 54.734375 -39.484375 C 53.210938 -36.117188 51.34375 -32.488281 49.125 -28.59375 C 46.914062 -24.695312 44.492188 -20.851562 41.859375 -17.0625 C 39.234375 -13.269531 36.5 -9.953125 33.65625 -7.109375 C 30.070312 -3.523438 26.832031 -1.363281 23.9375 -0.625 C 21.039062 0.101562 18.40625 -0.238281 16.03125 -1.65625 C 13.664062 -3.082031 11.613281 -5.242188 9.875 -8.140625 C 8.132812 -11.035156 6.6875 -14.273438 5.53125 -17.859375 C 3.101562 -25.015625 1.414062 -32.988281 0.46875 -41.78125 C -0.476562 -50.582031 -0.816406 -59.691406 -0.546875 -69.109375 C -0.285156 -78.535156 0.472656 -87.859375 1.734375 -97.078125 C 3.003906 -106.296875 4.691406 -114.957031 6.796875 -123.0625 C 8.898438 -131.175781 11.320312 -138.285156 14.0625 -144.390625 C 16.90625 -150.816406 20.171875 -155.976562 23.859375 -159.875 C 27.546875 -163.769531 31.707031 -165.242188 36.34375 -164.296875 C 39.394531 -163.671875 41.523438 -161.59375 42.734375 -158.0625 C 43.941406 -154.53125 44.070312 -148.972656 43.125 -141.390625 C 42.28125 -134.753906 40.671875 -127.300781 38.296875 -119.03125 C 35.929688 -110.769531 33.171875 -102.347656 30.015625 -93.765625 C 26.859375 -85.179688 23.539062 -76.988281 20.0625 -69.1875 C 16.582031 -61.394531 13.316406 -54.550781 10.265625 -48.65625 C 10.265625 -46.019531 10.5 -42.597656 10.96875 -38.390625 C 11.445312 -34.179688 12.160156 -29.96875 13.109375 -25.75 C 14.054688 -21.539062 15.238281 -17.957031 16.65625 -15 C 18.082031 -12.050781 19.742188 -10.472656 21.640625 -10.265625 C 23.742188 -10.054688 25.953125 -10.953125 28.265625 -12.953125 C 30.585938 -14.953125 32.90625 -17.53125 35.21875 -20.6875 C 37.539062 -23.851562 39.726562 -27.195312 41.78125 -30.71875 C 43.84375 -34.25 45.632812 -37.515625 47.15625 -40.515625 C 48.6875 -43.523438 49.820312 -45.816406 50.5625 -47.390625 Z M 9.796875 -65.875 C 10.316406 -66.820312 11.367188 -69.242188 12.953125 -73.140625 C 14.535156 -77.035156 16.378906 -81.851562 18.484375 -87.59375 C 20.585938 -93.34375 22.71875 -99.425781 24.875 -105.84375 C 27.039062 -112.269531 28.988281 -118.484375 30.71875 -124.484375 C 32.457031 -130.492188 33.695312 -135.765625 34.4375 -140.296875 C 35.59375 -146.398438 35.671875 -150.238281 34.671875 -151.8125 C 33.671875 -153.394531 32.195312 -153.210938 30.25 -151.265625 C 28.300781 -149.316406 26.378906 -146.078125 24.484375 -141.546875 C 22.691406 -137.234375 21.03125 -132.257812 19.5 -126.625 C 17.976562 -120.988281 16.613281 -115.140625 15.40625 -109.078125 C 14.195312 -103.023438 13.195312 -97.15625 12.40625 -91.46875 C 11.613281 -85.78125 10.976562 -80.695312 10.5 -76.21875 C 10.03125 -71.75 9.796875 -68.300781 9.796875 -65.875 Z M 9.796875 -65.875 "/></g></g></g><g fill="#ff7300" fill-opacity="1"><g transform="translate(685.846062, 208.861034)"><g><path d="M 13.421875 -64.609375 C 13.210938 -63.878906 12.867188 -62.328125 12.390625 -59.953125 C 11.921875 -57.585938 11.421875 -54.769531 10.890625 -51.5 C 10.367188 -48.238281 9.976562 -44.84375 9.71875 -41.3125 C 9.457031 -37.78125 9.351562 -34.488281 9.40625 -31.4375 C 9.457031 -28.382812 9.847656 -25.960938 10.578125 -24.171875 C 11.742188 -21.222656 13.351562 -19.429688 15.40625 -18.796875 C 17.457031 -18.171875 19.75 -18.859375 22.28125 -20.859375 C 25.019531 -22.960938 27.8125 -26.410156 30.65625 -31.203125 C 33.5 -35.992188 36.285156 -41.390625 39.015625 -47.390625 L 46.609375 -47.390625 C 44.816406 -43.179688 42.679688 -38.785156 40.203125 -34.203125 C 37.734375 -29.617188 35.019531 -25.378906 32.0625 -21.484375 C 29.113281 -17.585938 26.085938 -14.503906 22.984375 -12.234375 C 19.878906 -9.972656 16.800781 -9.003906 13.75 -9.328125 C 11.75 -9.535156 9.800781 -10.242188 7.90625 -11.453125 C 6.007812 -12.660156 4.320312 -14.476562 2.84375 -16.90625 C 1.582031 -19.113281 0.710938 -21.984375 0.234375 -25.515625 C -0.234375 -29.046875 -0.441406 -32.785156 -0.390625 -36.734375 C -0.335938 -40.679688 -0.128906 -44.550781 0.234375 -48.34375 C 0.609375 -52.132812 1.03125 -55.453125 1.5 -58.296875 C 1.976562 -61.140625 2.375 -63.140625 2.6875 -64.296875 C 3.53125 -67.035156 4.632812 -68.851562 6 -69.75 C 7.375 -70.644531 8.742188 -70.90625 10.109375 -70.53125 C 11.484375 -70.164062 12.507812 -69.429688 13.1875 -68.328125 C 13.875 -67.222656 13.953125 -65.984375 13.421875 -64.609375 Z M 9.640625 -98.421875 C 11.535156 -99.898438 13.507812 -100.53125 15.5625 -100.3125 C 17.613281 -100.101562 19.164062 -99.101562 20.21875 -97.3125 C 21.269531 -95.632812 21.476562 -93.632812 20.84375 -91.3125 C 20.21875 -89 18.957031 -87.101562 17.0625 -85.625 C 15.164062 -84.15625 13.191406 -83.523438 11.140625 -83.734375 C 9.085938 -83.941406 7.535156 -84.941406 6.484375 -86.734375 C 5.421875 -88.523438 5.207031 -90.578125 5.84375 -92.890625 C 6.476562 -95.210938 7.742188 -97.054688 9.640625 -98.421875 Z M 9.640625 -98.421875 "/></g></g></g><g fill="#ff7300" fill-opacity="1"><g transform="translate(721.708495, 208.861034)"><g><path d="M 0.15625 -47.234375 C -2.582031 -50.179688 -4.609375 -53.578125 -5.921875 -57.421875 C -7.242188 -61.265625 -7.796875 -65.1875 -7.578125 -69.1875 C -7.367188 -73.195312 -6.472656 -76.78125 -4.890625 -79.9375 C -3.210938 -83.3125 -1.269531 -85.578125 0.9375 -86.734375 C 3.15625 -87.890625 5.289062 -88.125 7.34375 -87.4375 C 9.394531 -86.757812 11.078125 -85.335938 12.390625 -83.171875 C 13.710938 -81.015625 14.320312 -78.253906 14.21875 -74.890625 C 14.113281 -70.671875 13.535156 -66.453125 12.484375 -62.234375 C 11.429688 -58.023438 10.378906 -54.550781 9.328125 -51.8125 C 11.535156 -50.238281 14.085938 -48.210938 16.984375 -45.734375 C 19.878906 -43.265625 22.671875 -40.632812 25.359375 -37.84375 C 28.046875 -35.050781 30.070312 -32.285156 31.4375 -29.546875 C 32.8125 -30.390625 34.390625 -31.757812 36.171875 -33.65625 C 37.960938 -35.550781 39.753906 -37.734375 41.546875 -40.203125 C 43.335938 -42.679688 44.8125 -45.078125 45.96875 -47.390625 L 53.5625 -47.390625 C 52.289062 -44.765625 50.578125 -41.816406 48.421875 -38.546875 C 46.265625 -35.285156 43.894531 -32.234375 41.3125 -29.390625 C 38.726562 -26.546875 36.226562 -24.332031 33.8125 -22.75 C 35.28125 -17.164062 34.988281 -11.925781 32.9375 -7.03125 C 30.882812 -2.132812 28.066406 2 24.484375 5.375 C 20.171875 9.476562 15.90625 12.03125 11.6875 13.03125 C 7.476562 14.03125 3.765625 13.925781 0.546875 12.71875 C -2.660156 11.507812 -4.972656 9.585938 -6.390625 6.953125 C -7.816406 4.316406 -8.003906 1.34375 -6.953125 -1.96875 C -5.898438 -5.289062 -3.109375 -8.53125 1.421875 -11.6875 C 5.109375 -14.320312 9.109375 -16.664062 13.421875 -18.71875 C 17.742188 -20.769531 21.171875 -22.640625 23.703125 -24.328125 C 22.222656 -27.597656 20.242188 -30.285156 17.765625 -32.390625 C 15.296875 -34.492188 12.5625 -36.648438 9.5625 -38.859375 C 6.5625 -41.078125 3.425781 -43.867188 0.15625 -47.234375 Z M 24.796875 -16.59375 C 23.429688 -15.851562 21.035156 -14.640625 17.609375 -12.953125 C 14.191406 -11.265625 10.957031 -9.367188 7.90625 -7.265625 C 4.738281 -5.160156 2.8125 -3.023438 2.125 -0.859375 C 1.445312 1.296875 1.84375 2.976562 3.3125 4.1875 C 4.789062 5.394531 7.210938 5.628906 10.578125 4.890625 C 13.109375 4.265625 15.53125 2.867188 17.84375 0.703125 C 20.164062 -1.453125 22.007812 -4.054688 23.375 -7.109375 C 24.75 -10.160156 25.222656 -13.320312 24.796875 -16.59375 Z M 4.421875 -57.1875 C 4.628906 -58.03125 5.050781 -59.609375 5.6875 -61.921875 C 6.320312 -64.242188 6.847656 -66.691406 7.265625 -69.265625 C 7.691406 -71.847656 7.796875 -74.085938 7.578125 -75.984375 C 7.367188 -77.878906 6.582031 -78.828125 5.21875 -78.828125 C 3.945312 -78.828125 2.941406 -77.984375 2.203125 -76.296875 C 1.472656 -74.617188 1.054688 -72.539062 0.953125 -70.0625 C 0.847656 -67.59375 1.054688 -65.171875 1.578125 -62.796875 C 2.109375 -60.429688 3.054688 -58.5625 4.421875 -57.1875 Z M 4.421875 -57.1875 "/></g></g></g><g fill="#ff7300" fill-opacity="1"><g transform="translate(764.996218, 208.861034)"><g><path d="M 31.28125 -7.578125 C 27.070312 -2.421875 23.359375 0.8125 20.140625 2.125 C 16.929688 3.445312 14.140625 3.394531 11.765625 1.96875 C 9.398438 0.550781 7.425781 -1.8125 5.84375 -5.125 C 4.257812 -8.445312 3.019531 -12.1875 2.125 -16.34375 C 1.238281 -20.507812 0.632812 -24.539062 0.3125 -28.4375 C -0.207031 -35.707031 -0.3125 -42.894531 0 -50 C 0.3125 -57.113281 0.835938 -63.800781 1.578125 -70.0625 C 2.316406 -76.332031 3.023438 -81.835938 3.703125 -86.578125 C 4.390625 -91.316406 4.894531 -95.003906 5.21875 -97.640625 C 2.476562 -97.316406 -0.941406 -96.914062 -5.046875 -96.4375 C -9.160156 -95.96875 -13.242188 -95.492188 -17.296875 -95.015625 C -21.347656 -94.546875 -24.640625 -94.101562 -27.171875 -93.6875 C -29.273438 -93.363281 -30.773438 -93.753906 -31.671875 -94.859375 C -32.566406 -95.972656 -32.722656 -97.210938 -32.140625 -98.578125 C -31.566406 -99.953125 -30.226562 -100.847656 -28.125 -101.265625 C -22.113281 -102.109375 -15.945312 -102.84375 -9.625 -103.46875 C -3.3125 -104.101562 2.054688 -104.632812 6.484375 -105.0625 C 7.316406 -110.113281 8.179688 -114.820312 9.078125 -119.1875 C 9.972656 -123.5625 10.738281 -126.644531 11.375 -128.4375 C 12.113281 -130.863281 13.296875 -132.550781 14.921875 -133.5 C 16.554688 -134.445312 18.003906 -134.421875 19.265625 -133.421875 C 20.535156 -132.421875 20.957031 -130.285156 20.53125 -127.015625 C 20.21875 -124.492188 19.664062 -121.175781 18.875 -117.0625 C 18.082031 -112.957031 17.425781 -109.21875 16.90625 -105.84375 C 25.125 -106.476562 33.523438 -106.609375 42.109375 -106.234375 C 50.691406 -105.867188 58.773438 -105.238281 66.359375 -104.34375 C 73.941406 -103.445312 80.519531 -102.367188 86.09375 -101.109375 C 91.675781 -99.847656 95.578125 -98.632812 97.796875 -97.46875 C 99.691406 -96.519531 100.691406 -95.492188 100.796875 -94.390625 C 100.898438 -93.285156 100.367188 -92.441406 99.203125 -91.859375 C 98.046875 -91.285156 96.578125 -91.316406 94.796875 -91.953125 C 91.953125 -93.003906 87.789062 -94.082031 82.3125 -95.1875 C 76.832031 -96.289062 70.457031 -97.210938 63.1875 -97.953125 C 55.925781 -98.691406 48.210938 -99.140625 40.046875 -99.296875 C 31.890625 -99.453125 23.703125 -99.109375 15.484375 -98.265625 C 15.273438 -96.472656 14.828125 -93.285156 14.140625 -88.703125 C 13.453125 -84.117188 12.738281 -78.71875 12 -72.5 C 11.269531 -66.289062 10.664062 -59.789062 10.1875 -53 C 9.71875 -46.207031 9.535156 -39.625 9.640625 -33.25 C 9.742188 -26.882812 10.320312 -21.332031 11.375 -16.59375 C 12.320312 -12.375 13.554688 -9.710938 15.078125 -8.609375 C 16.609375 -7.503906 18.375 -7.582031 20.375 -8.84375 C 22.375 -10.113281 24.484375 -12.007812 26.703125 -14.53125 C 28.910156 -17.0625 31.09375 -19.929688 33.25 -23.140625 C 35.414062 -26.359375 37.421875 -29.597656 39.265625 -32.859375 C 41.109375 -36.128906 42.6875 -39.078125 44 -41.703125 C 45.3125 -44.335938 46.234375 -46.234375 46.765625 -47.390625 L 54.34375 -47.390625 C 52.550781 -43.078125 50.390625 -38.5 47.859375 -33.65625 C 45.335938 -28.8125 42.65625 -24.125 39.8125 -19.59375 C 36.96875 -15.0625 34.125 -11.054688 31.28125 -7.578125 Z M 31.28125 -7.578125 "/></g></g></g></svg>